# xmcd CD database file
#
# Track frame offsets:
#	150
#	34569
#	51654
#	72338
#	89646
#	120112
#	152969
#
# Disc length: 2315 seconds
#
# Revision: 0
# Processed by: cddbd v1.5.2PL0 Copyright (c) Steve Scherf et al.
# Submitted via: CDex 1.70beta2
#
DISCID=5b090907
DTITLE=Lewis, George - Change of Season
DYEAR=1985
DGENRE=Jazz
TTITLE0=House Party Starting
TTITLE1=The happenings
TTITLE2=Step Tempest
TTITLE3=Hangover Triangle
TTITLE4=Change of Season
TTITLE5=Spinning Song
TTITLE6=Terpsichore
EXTD=YEAR: 1985
EXTT0=
EXTT1=
EXTT2=
EXTT3=
EXTT4=
EXTT5=
EXTT6=
PLAYORDER=
